<mxfile host="Electron" modified="2023-11-09T10:34:04.500Z" agent="Mozilla/5.0 (Windows NT 10.0; Win64; x64) AppleWebKit/537.36 (KHTML, like Gecko) draw.io/21.8.2 Chrome/114.0.5735.289 Electron/25.8.1 Safari/537.36" etag="8QiaEnaKdvH_EfbDisnQ" version="21.8.2" type="device">
  <diagram name="Page-1" id="wwqZZdquXVbn17gPfpIG">
    <mxGraphModel dx="650" dy="757" grid="1" gridSize="10" guides="1" tooltips="1" connect="1" arrows="1" fold="1" page="1" pageScale="1" pageWidth="1169" pageHeight="1654" math="0" shadow="0">
      <root>
        <mxCell id="0" />
        <mxCell id="1" parent="0" />
        <mxCell id="N9Q_AhcAN-xkWhXh_RpI-36" value="" style="group" parent="1" vertex="1" connectable="0">
          <mxGeometry x="90" y="80" width="890" height="770" as="geometry" />
        </mxCell>
        <mxCell id="N9Q_AhcAN-xkWhXh_RpI-35" value="" style="rounded=0;whiteSpace=wrap;html=1;" parent="N9Q_AhcAN-xkWhXh_RpI-36" vertex="1">
          <mxGeometry y="167.39" width="890" height="602.61" as="geometry" />
        </mxCell>
        <mxCell id="N9Q_AhcAN-xkWhXh_RpI-34" value="&lt;p style=&quot;margin:0px;margin-top:4px;margin-left:10px;text-align:left;&quot;&gt;&lt;b&gt;STD &lt;/b&gt;ShootingControl&lt;/p&gt;" style="html=1;shape=mxgraph.sysml.package;html=1;overflow=fill;whiteSpace=wrap;labelX=135.88;" parent="N9Q_AhcAN-xkWhXh_RpI-36" vertex="1">
          <mxGeometry width="890" height="167.39" as="geometry" />
        </mxCell>
        <mxCell id="Cnrj6VFgLzxZw03foUf_-1" value="&lt;p style=&quot;margin:0px;margin-top:4px;text-align:center;&quot;&gt;waitForTrigger&lt;/p&gt;&lt;hr&gt;&lt;p&gt;&lt;/p&gt;&lt;p style=&quot;margin:0px;margin-left:8px;text-align:left;&quot;&gt;displayControl.setBulletCount(ammo);&lt;/p&gt;&lt;p style=&quot;margin:0px;margin-left:8px;text-align:left;&quot;&gt;displayControl.drawDisplaySet();&lt;/p&gt;" style="shape=mxgraph.sysml.simpleState;html=1;overflow=fill;whiteSpace=wrap;align=center;" vertex="1" parent="N9Q_AhcAN-xkWhXh_RpI-36">
          <mxGeometry x="309.8666666666666" y="379.42028985507244" width="232.4" height="78.1159420289855" as="geometry" />
        </mxCell>
        <mxCell id="N9Q_AhcAN-xkWhXh_RpI-17" value="" style="rhombus;whiteSpace=wrap;html=1;" parent="N9Q_AhcAN-xkWhXh_RpI-36" vertex="1">
          <mxGeometry x="402.55" y="502.1739130434783" width="47.03333333333333" height="44.637681159420296" as="geometry" />
        </mxCell>
        <mxCell id="N9Q_AhcAN-xkWhXh_RpI-19" value="button = buttonQueue.read()" style="edgeStyle=orthogonalEdgeStyle;rounded=0;orthogonalLoop=1;jettySize=auto;html=1;" parent="N9Q_AhcAN-xkWhXh_RpI-36" source="Cnrj6VFgLzxZw03foUf_-1" target="N9Q_AhcAN-xkWhXh_RpI-17" edge="1">
          <mxGeometry relative="1" as="geometry">
            <mxPoint x="420.53333333333336" y="435.21739130434787" as="sourcePoint" />
          </mxGeometry>
        </mxCell>
        <mxCell id="Cnrj6VFgLzxZw03foUf_-2" value="" style="edgeStyle=orthogonalEdgeStyle;rounded=0;orthogonalLoop=1;jettySize=auto;html=1;" edge="1" parent="N9Q_AhcAN-xkWhXh_RpI-36" source="Cnrj6VFgLzxZw03foUf_-1" target="N9Q_AhcAN-xkWhXh_RpI-17">
          <mxGeometry relative="1" as="geometry" />
        </mxCell>
        <mxCell id="N9Q_AhcAN-xkWhXh_RpI-31" value="" style="rhombus;whiteSpace=wrap;html=1;" parent="N9Q_AhcAN-xkWhXh_RpI-36" vertex="1">
          <mxGeometry x="221.33333333333334" y="396.15942028985506" width="47.03333333333333" height="44.637681159420296" as="geometry" />
        </mxCell>
        <mxCell id="N9Q_AhcAN-xkWhXh_RpI-20" value="[else]" style="edgeStyle=orthogonalEdgeStyle;rounded=0;orthogonalLoop=1;jettySize=auto;html=1;" parent="N9Q_AhcAN-xkWhXh_RpI-36" source="N9Q_AhcAN-xkWhXh_RpI-17" target="N9Q_AhcAN-xkWhXh_RpI-31" edge="1">
          <mxGeometry x="-0.6783" y="-10" relative="1" as="geometry">
            <Array as="points">
              <mxPoint x="244.57333333333332" y="513.3333333333334" />
            </Array>
            <mxPoint as="offset" />
          </mxGeometry>
        </mxCell>
        <mxCell id="N9Q_AhcAN-xkWhXh_RpI-32" style="edgeStyle=orthogonalEdgeStyle;rounded=0;orthogonalLoop=1;jettySize=auto;html=1;" parent="N9Q_AhcAN-xkWhXh_RpI-36" source="N9Q_AhcAN-xkWhXh_RpI-31" target="Cnrj6VFgLzxZw03foUf_-1" edge="1">
          <mxGeometry relative="1" as="geometry">
            <mxPoint x="365.2" y="412.8985507246377" as="targetPoint" />
          </mxGeometry>
        </mxCell>
        <mxCell id="N9Q_AhcAN-xkWhXh_RpI-33" value="&lt;p style=&quot;margin:0px;margin-top:4px;text-align:center;&quot;&gt;Reload&lt;/p&gt;&lt;hr&gt;&lt;p&gt;&lt;/p&gt;&lt;p style=&quot;margin:0px;margin-left:8px;text-align:left;&quot;&gt;speakerControl.reloadSet();&lt;/p&gt;&lt;p style=&quot;margin:0px;margin-left:8px;text-align:left;&quot;&gt;displayControl.reloadSet();&lt;/p&gt;&lt;p style=&quot;margin:0px;margin-left:8px;text-align:left;&quot;&gt;ammo=GameData.getMaxAmmo();&lt;/p&gt;&lt;p style=&quot;margin:0px;margin-left:8px;text-align:left;&quot;&gt;displayControl.setBulletCount(ammo);&lt;/p&gt;&lt;p style=&quot;margin:0px;margin-left:8px;text-align:left;&quot;&gt;displayControl.drawDisplaySet();&lt;/p&gt;" style="shape=mxgraph.sysml.simpleState;html=1;overflow=fill;whiteSpace=wrap;align=center;" parent="N9Q_AhcAN-xkWhXh_RpI-36" vertex="1">
          <mxGeometry x="661.87" y="357.42" width="218.13" height="120.58" as="geometry" />
        </mxCell>
        <mxCell id="N9Q_AhcAN-xkWhXh_RpI-21" value="after(reloadTime) / &lt;br&gt;ammo = maxAmmo" style="edgeStyle=orthogonalEdgeStyle;rounded=0;orthogonalLoop=1;jettySize=auto;html=1;" parent="N9Q_AhcAN-xkWhXh_RpI-36" source="N9Q_AhcAN-xkWhXh_RpI-33" target="Cnrj6VFgLzxZw03foUf_-1" edge="1">
          <mxGeometry x="-0.1404" y="-15" relative="1" as="geometry">
            <mxPoint x="628.5866666666667" y="418.47826086956525" as="sourcePoint" />
            <Array as="points" />
            <mxPoint as="offset" />
            <mxPoint x="502.4266666666667" y="418.47826086956525" as="targetPoint" />
          </mxGeometry>
        </mxCell>
        <mxCell id="N9Q_AhcAN-xkWhXh_RpI-11" value="" style="rhombus;whiteSpace=wrap;html=1;" parent="N9Q_AhcAN-xkWhXh_RpI-36" vertex="1">
          <mxGeometry x="402.55" y="636.0869565217391" width="47.03333333333333" height="44.637681159420296" as="geometry" />
        </mxCell>
        <mxCell id="N9Q_AhcAN-xkWhXh_RpI-18" value="[button == TriggerButton]" style="edgeStyle=orthogonalEdgeStyle;rounded=0;orthogonalLoop=1;jettySize=auto;html=1;" parent="N9Q_AhcAN-xkWhXh_RpI-36" source="N9Q_AhcAN-xkWhXh_RpI-17" target="N9Q_AhcAN-xkWhXh_RpI-11" edge="1">
          <mxGeometry relative="1" as="geometry">
            <mxPoint x="420.5333333333328" y="569.1304347826087" as="sourcePoint" />
          </mxGeometry>
        </mxCell>
        <mxCell id="N9Q_AhcAN-xkWhXh_RpI-22" value="WaitForReload" style="shape=rect;rounded=1;html=1;whiteSpace=wrap;align=center;" parent="N9Q_AhcAN-xkWhXh_RpI-36" vertex="1">
          <mxGeometry x="711.25" y="638.41" width="100" height="40" as="geometry" />
        </mxCell>
        <mxCell id="N9Q_AhcAN-xkWhXh_RpI-16" value="[else]" style="edgeStyle=orthogonalEdgeStyle;rounded=0;orthogonalLoop=1;jettySize=auto;html=1;" parent="N9Q_AhcAN-xkWhXh_RpI-36" source="N9Q_AhcAN-xkWhXh_RpI-11" target="N9Q_AhcAN-xkWhXh_RpI-22" edge="1">
          <mxGeometry x="-0.2632" y="10" relative="1" as="geometry">
            <mxPoint as="offset" />
          </mxGeometry>
        </mxCell>
        <mxCell id="N9Q_AhcAN-xkWhXh_RpI-24" value="" style="rhombus;whiteSpace=wrap;html=1;" parent="N9Q_AhcAN-xkWhXh_RpI-36" vertex="1">
          <mxGeometry x="740" y="510" width="42.5" height="40" as="geometry" />
        </mxCell>
        <mxCell id="N9Q_AhcAN-xkWhXh_RpI-25" value="[button == ReloadButton]" style="edgeStyle=orthogonalEdgeStyle;rounded=0;orthogonalLoop=1;jettySize=auto;html=1;" parent="N9Q_AhcAN-xkWhXh_RpI-36" source="N9Q_AhcAN-xkWhXh_RpI-24" target="N9Q_AhcAN-xkWhXh_RpI-33" edge="1">
          <mxGeometry relative="1" as="geometry">
            <mxPoint x="645" y="390" as="targetPoint" />
            <Array as="points">
              <mxPoint x="770" y="522" />
              <mxPoint x="770" y="522" />
            </Array>
          </mxGeometry>
        </mxCell>
        <mxCell id="N9Q_AhcAN-xkWhXh_RpI-27" value="button = buttonQueue.read()" style="edgeStyle=orthogonalEdgeStyle;rounded=0;orthogonalLoop=1;jettySize=auto;html=1;" parent="N9Q_AhcAN-xkWhXh_RpI-36" source="N9Q_AhcAN-xkWhXh_RpI-22" target="N9Q_AhcAN-xkWhXh_RpI-24" edge="1">
          <mxGeometry x="0.0918" y="-39" relative="1" as="geometry">
            <mxPoint as="offset" />
            <Array as="points">
              <mxPoint x="781" y="610" />
              <mxPoint x="781" y="610" />
            </Array>
          </mxGeometry>
        </mxCell>
        <mxCell id="N9Q_AhcAN-xkWhXh_RpI-26" value="[else]" style="edgeStyle=orthogonalEdgeStyle;rounded=0;orthogonalLoop=1;jettySize=auto;html=1;" parent="N9Q_AhcAN-xkWhXh_RpI-36" source="N9Q_AhcAN-xkWhXh_RpI-24" target="N9Q_AhcAN-xkWhXh_RpI-22" edge="1">
          <mxGeometry x="-0.4465" y="-10" relative="1" as="geometry">
            <Array as="points">
              <mxPoint x="740" y="560" />
              <mxPoint x="740" y="560" />
            </Array>
            <mxPoint as="offset" />
          </mxGeometry>
        </mxCell>
        <mxCell id="N9Q_AhcAN-xkWhXh_RpI-13" value="&lt;p style=&quot;margin:0px;margin-top:4px;text-align:center;&quot;&gt;Shoot&lt;/p&gt;&lt;hr&gt;&lt;p&gt;&lt;/p&gt;&lt;p style=&quot;margin:0px;margin-left:8px;text-align:left;&quot;&gt;MessageSender.sendShoot(&lt;/p&gt;&lt;p style=&quot;margin:0px;margin-left:8px;text-align:left;&quot;&gt;weaponDamage,&lt;/p&gt;&lt;p style=&quot;margin:0px;margin-left:8px;text-align:left;&quot;&gt;&lt;span style=&quot;background-color: initial;&quot;&gt;playerNum,&lt;/span&gt;&lt;/p&gt;&lt;p style=&quot;margin:0px;margin-left:8px;text-align:left;&quot;&gt;&lt;span style=&quot;background-color: initial;&quot;&gt;teamNum);&lt;/span&gt;&lt;/p&gt;&lt;p style=&quot;margin:0px;margin-left:8px;text-align:left;&quot;&gt;&lt;span style=&quot;background-color: initial;&quot;&gt;SpeakerControl.gunShot();&lt;/span&gt;&lt;/p&gt;&lt;p style=&quot;margin:0px;margin-left:8px;text-align:left;&quot;&gt;GameData.setShotsTaken(&lt;/p&gt;&lt;p style=&quot;margin:0px;margin-left:8px;text-align:left;&quot;&gt;GameData.getShotsTaken+1));&lt;/p&gt;" style="shape=mxgraph.sysml.simpleState;html=1;overflow=fill;whiteSpace=wrap;align=center;" parent="N9Q_AhcAN-xkWhXh_RpI-36" vertex="1">
          <mxGeometry x="58.370000000000005" y="583.41" width="210" height="150" as="geometry" />
        </mxCell>
        <mxCell id="N9Q_AhcAN-xkWhXh_RpI-14" value="[ammo != 0]" style="edgeStyle=orthogonalEdgeStyle;rounded=0;orthogonalLoop=1;jettySize=auto;html=1;" parent="N9Q_AhcAN-xkWhXh_RpI-36" source="N9Q_AhcAN-xkWhXh_RpI-11" target="N9Q_AhcAN-xkWhXh_RpI-13" edge="1">
          <mxGeometry x="-0.1429" y="-10" relative="1" as="geometry">
            <mxPoint as="offset" />
          </mxGeometry>
        </mxCell>
        <mxCell id="N9Q_AhcAN-xkWhXh_RpI-30" value="after(shootCooldown)" style="edgeStyle=orthogonalEdgeStyle;rounded=0;orthogonalLoop=1;jettySize=auto;html=1;" parent="N9Q_AhcAN-xkWhXh_RpI-36" source="N9Q_AhcAN-xkWhXh_RpI-13" target="N9Q_AhcAN-xkWhXh_RpI-31" edge="1">
          <mxGeometry x="-0.8286" y="60" relative="1" as="geometry">
            <Array as="points">
              <mxPoint x="160" y="420" />
            </Array>
            <mxPoint as="offset" />
          </mxGeometry>
        </mxCell>
        <mxCell id="N9Q_AhcAN-xkWhXh_RpI-3" style="edgeStyle=orthogonalEdgeStyle;rounded=0;orthogonalLoop=1;jettySize=auto;html=1;" parent="1" source="N9Q_AhcAN-xkWhXh_RpI-1" target="N9Q_AhcAN-xkWhXh_RpI-2" edge="1">
          <mxGeometry relative="1" as="geometry" />
        </mxCell>
        <mxCell id="N9Q_AhcAN-xkWhXh_RpI-1" value="" style="shape=ellipse;html=1;fillColor=strokeColor;fontSize=18;fontColor=#ffffff;" parent="1" vertex="1">
          <mxGeometry x="230" y="140" width="40" height="40" as="geometry" />
        </mxCell>
        <mxCell id="N9Q_AhcAN-xkWhXh_RpI-2" value="void init(ammo) / maxAmmo = ammo; startFlag.set()&lt;br&gt;void buttonPressed(ID) / buttonQueue.write(ID)&lt;br&gt;void disable() / stopFlag.set()" style="shape=rect;rounded=1;html=1;whiteSpace=wrap;align=left;spacingLeft=10;" parent="1" vertex="1">
          <mxGeometry x="330" y="120" width="380" height="80" as="geometry" />
        </mxCell>
        <mxCell id="N9Q_AhcAN-xkWhXh_RpI-6" style="edgeStyle=orthogonalEdgeStyle;rounded=0;orthogonalLoop=1;jettySize=auto;html=1;" parent="1" source="N9Q_AhcAN-xkWhXh_RpI-4" target="N9Q_AhcAN-xkWhXh_RpI-5" edge="1">
          <mxGeometry relative="1" as="geometry" />
        </mxCell>
        <mxCell id="N9Q_AhcAN-xkWhXh_RpI-4" value="" style="shape=ellipse;html=1;fillColor=strokeColor;fontSize=18;fontColor=#ffffff;" parent="1" vertex="1">
          <mxGeometry x="450" y="250" width="40" height="40" as="geometry" />
        </mxCell>
        <mxCell id="N9Q_AhcAN-xkWhXh_RpI-9" value="startFlag" style="edgeStyle=orthogonalEdgeStyle;rounded=0;orthogonalLoop=1;jettySize=auto;html=1;" parent="1" source="N9Q_AhcAN-xkWhXh_RpI-5" target="Cnrj6VFgLzxZw03foUf_-1" edge="1">
          <mxGeometry relative="1" as="geometry">
            <Array as="points">
              <mxPoint x="440" y="400" />
              <mxPoint x="440" y="400" />
            </Array>
            <mxPoint x="500" y="430" as="targetPoint" />
          </mxGeometry>
        </mxCell>
        <mxCell id="N9Q_AhcAN-xkWhXh_RpI-5" value="Idle" style="shape=rect;rounded=1;html=1;whiteSpace=wrap;align=center;" parent="1" vertex="1">
          <mxGeometry x="420" y="340" width="100" height="40" as="geometry" />
        </mxCell>
        <mxCell id="N9Q_AhcAN-xkWhXh_RpI-37" value="stopFlag" style="edgeStyle=orthogonalEdgeStyle;rounded=0;orthogonalLoop=1;jettySize=auto;html=1;" parent="1" source="Cnrj6VFgLzxZw03foUf_-1" target="N9Q_AhcAN-xkWhXh_RpI-5" edge="1">
          <mxGeometry relative="1" as="geometry">
            <Array as="points">
              <mxPoint x="500" y="400" />
              <mxPoint x="500" y="400" />
            </Array>
            <mxPoint x="440" y="430" as="sourcePoint" />
          </mxGeometry>
        </mxCell>
      </root>
    </mxGraphModel>
  </diagram>
</mxfile>
